<svg id="svg" xmlns="http://www.w3.org/2000/svg" xmlns:xlink="http://www.w3.org/1999/xlink" width="400" height="90" viewBox="0, 0, 400,90"><g id="svgg"><path id="path0" d="M88.527 16.646 C 88.561 16.927,88.487 17.162,88.375 17.125 C 88.306 17.102,88.237 17.155,88.221 17.243 C 88.205 17.332,88.055 17.452,87.887 17.511 C 87.688 17.581,87.583 17.784,87.583 18.101 C 87.583 18.531,87.527 18.583,87.056 18.583 C 86.765 18.583,86.465 18.652,86.389 18.735 C 86.308 18.823,86.337 18.837,86.458 18.767 C 86.573 18.701,86.667 18.731,86.667 18.834 C 86.667 18.937,86.498 18.997,86.292 18.969 C 85.987 18.926,85.926 18.987,85.969 19.292 C 85.997 19.498,85.937 19.667,85.834 19.667 C 85.731 19.667,85.701 19.580,85.766 19.474 C 85.838 19.358,85.812 19.327,85.700 19.396 C 85.598 19.459,85.554 19.613,85.602 19.738 C 85.650 19.864,85.608 20.017,85.509 20.078 C 85.409 20.139,85.378 20.271,85.440 20.371 C 85.504 20.474,85.474 20.504,85.371 20.440 C 85.271 20.378,85.139 20.409,85.078 20.509 C 85.017 20.608,84.862 20.649,84.735 20.601 C 84.608 20.552,84.512 20.566,84.522 20.631 C 84.585 21.058,84.490 21.199,84.265 21.012 C 84.117 20.889,83.992 20.878,83.929 20.980 C 83.873 21.070,83.917 21.199,84.026 21.266 C 84.159 21.348,84.106 21.432,83.862 21.522 C 83.663 21.596,83.500 21.780,83.500 21.932 C 83.500 22.150,83.451 22.167,83.265 22.012 C 83.117 21.889,82.992 21.878,82.929 21.980 C 82.873 22.070,82.905 22.191,83.000 22.250 C 83.228 22.391,83.022 22.711,82.767 22.613 C 82.635 22.562,82.578 22.702,82.600 23.019 C 82.634 23.514,82.094 23.848,81.676 23.589 C 81.579 23.529,81.500 23.560,81.500 23.657 C 81.500 23.872,80.891 24.500,80.682 24.500 C 80.599 24.500,80.565 24.631,80.607 24.792 C 80.649 24.952,80.569 25.233,80.430 25.417 C 80.215 25.700,80.176 25.708,80.172 25.472 C 80.169 25.319,80.260 25.157,80.375 25.110 C 80.532 25.047,80.528 25.023,80.359 25.013 C 80.236 25.006,80.096 25.151,80.048 25.336 C 79.999 25.521,79.846 25.652,79.707 25.628 C 79.567 25.603,79.433 25.724,79.405 25.900 C 79.351 26.247,79.010 26.526,78.800 26.396 C 78.726 26.351,78.667 26.464,78.667 26.647 C 78.667 26.830,78.590 27.027,78.497 27.085 C 78.404 27.143,78.368 27.254,78.417 27.333 C 78.602 27.633,78.134 27.686,77.905 27.392 C 77.716 27.148,77.686 27.141,77.761 27.358 C 77.813 27.509,77.764 27.690,77.652 27.759 C 77.513 27.845,77.491 27.815,77.583 27.667 C 77.675 27.519,77.653 27.489,77.517 27.573 C 77.406 27.641,77.343 27.780,77.377 27.882 C 77.456 28.119,76.992 28.667,76.713 28.667 C 76.596 28.667,76.500 28.770,76.500 28.896 C 76.500 29.179,76.116 29.512,75.726 29.570 C 75.566 29.593,75.406 29.718,75.371 29.848 C 75.321 30.034,75.348 30.031,75.498 29.833 C 75.651 29.633,75.666 29.666,75.574 30.000 C 75.435 30.502,75.502 30.435,75.000 30.574 C 74.682 30.661,74.643 30.647,74.833 30.513 C 74.987 30.406,75.007 30.337,74.885 30.336 C 74.776 30.334,74.640 30.408,74.583 30.500 C 74.527 30.592,74.339 30.667,74.167 30.667 C 73.778 30.667,73.648 30.866,73.630 31.489 C 73.621 31.814,73.515 32.001,73.308 32.055 C 73.139 32.099,73.000 32.258,73.000 32.408 C 73.000 32.570,72.889 32.661,72.727 32.632 C 72.565 32.603,72.434 32.712,72.405 32.900 C 72.348 33.264,72.007 33.524,71.774 33.380 C 71.687 33.326,71.658 33.350,71.709 33.434 C 71.761 33.518,71.698 33.732,71.569 33.909 C 71.354 34.202,71.333 34.204,71.333 33.936 C 71.333 33.747,71.230 33.662,71.044 33.698 C 70.650 33.774,70.552 34.333,70.932 34.333 C 71.092 34.333,71.166 34.390,71.097 34.458 C 71.028 34.527,70.885 34.583,70.778 34.583 C 70.671 34.583,70.583 34.671,70.583 34.778 C 70.583 34.885,70.527 35.028,70.458 35.097 C 70.390 35.166,70.333 35.092,70.333 34.932 C 70.333 34.552,69.774 34.650,69.698 35.044 C 69.662 35.231,69.750 35.337,69.946 35.344 C 70.194 35.353,70.180 35.382,69.875 35.505 C 69.669 35.588,69.500 35.767,69.500 35.902 C 69.500 36.186,68.845 36.694,68.641 36.568 C 68.566 36.521,68.545 36.589,68.595 36.719 C 68.650 36.865,68.553 36.991,68.343 37.046 C 68.154 37.095,68.006 37.236,68.013 37.359 C 68.023 37.528,68.047 37.532,68.110 37.375 C 68.209 37.129,68.667 37.093,68.667 37.330 C 68.667 37.548,67.905 37.731,67.650 37.573 C 67.539 37.505,67.489 37.516,67.538 37.599 C 67.643 37.775,66.569 38.847,66.428 38.706 C 66.274 38.552,66.320 38.830,66.506 39.178 C 66.640 39.428,66.624 39.500,66.436 39.500 C 66.303 39.500,66.057 39.545,65.889 39.599 C 65.629 39.683,65.621 39.669,65.833 39.503 C 66.056 39.330,66.056 39.316,65.833 39.383 C 65.696 39.424,65.600 39.538,65.621 39.634 C 65.642 39.731,65.417 40.013,65.121 40.260 C 64.825 40.507,64.532 40.831,64.470 40.980 C 64.372 41.213,64.355 41.209,64.345 40.946 C 64.337 40.750,64.230 40.662,64.044 40.698 C 63.663 40.771,63.549 41.333,63.914 41.333 C 64.064 41.333,64.139 41.410,64.081 41.504 C 64.022 41.599,63.857 41.655,63.713 41.629 C 63.569 41.604,63.419 41.696,63.380 41.833 C 63.316 42.056,63.328 42.056,63.485 41.833 C 63.582 41.696,63.663 41.660,63.664 41.755 C 63.668 42.011,63.097 42.449,62.862 42.371 C 62.749 42.333,62.677 42.400,62.703 42.520 C 62.729 42.640,62.586 42.813,62.385 42.904 C 62.185 42.995,61.983 43.212,61.938 43.385 C 61.893 43.558,61.789 43.659,61.708 43.609 C 61.522 43.494,61.557 45.688,61.746 45.993 C 61.839 46.144,61.822 46.179,61.692 46.099 C 61.587 46.034,61.500 46.060,61.500 46.157 C 61.500 46.254,61.617 46.333,61.760 46.333 C 61.903 46.333,61.973 46.408,61.917 46.500 C 61.718 46.822,62.037 47.069,62.259 46.765 C 62.392 46.584,62.508 46.544,62.577 46.657 C 62.637 46.754,62.607 46.833,62.510 46.833 C 62.413 46.833,62.333 46.913,62.333 47.010 C 62.333 47.107,62.407 47.141,62.498 47.085 C 62.594 47.025,62.619 47.096,62.559 47.254 C 62.491 47.429,62.536 47.514,62.686 47.493 C 63.391 47.394,63.620 47.502,63.545 47.895 C 63.479 48.238,63.549 48.306,64.069 48.403 C 64.624 48.507,64.662 48.552,64.582 49.006 C 64.513 49.402,64.553 49.492,64.790 49.472 C 65.557 49.407,65.706 49.489,65.598 49.917 C 65.520 50.229,65.559 50.333,65.757 50.333 C 65.901 50.333,65.973 50.408,65.917 50.500 C 65.718 50.822,66.037 51.069,66.259 50.765 C 66.392 50.584,66.508 50.544,66.577 50.657 C 66.637 50.754,66.607 50.833,66.510 50.833 C 66.413 50.833,66.333 50.913,66.333 51.010 C 66.333 51.107,66.407 51.141,66.498 51.085 C 66.594 51.025,66.619 51.096,66.559 51.254 C 66.491 51.429,66.536 51.514,66.686 51.493 C 67.374 51.397,67.704 51.507,67.625 51.807 C 67.540 52.135,67.965 52.500,68.432 52.500 C 68.641 52.500,68.678 52.600,68.593 52.938 C 68.497 53.321,68.526 53.365,68.825 53.287 C 69.013 53.238,69.125 53.266,69.074 53.349 C 69.022 53.432,69.085 53.500,69.213 53.500 C 69.342 53.500,69.531 53.685,69.634 53.912 C 69.738 54.139,70.016 54.373,70.253 54.432 C 70.573 54.513,70.671 54.632,70.634 54.895 C 70.596 55.162,70.707 55.291,71.083 55.417 C 71.403 55.523,71.602 55.715,71.635 55.947 C 71.671 56.198,71.844 56.346,72.192 56.422 C 72.583 56.508,72.678 56.604,72.614 56.850 C 72.568 57.024,72.599 57.125,72.682 57.074 C 72.765 57.022,72.833 57.060,72.833 57.157 C 72.833 57.254,72.950 57.333,73.093 57.333 C 73.236 57.333,73.307 57.407,73.251 57.498 C 73.193 57.593,73.260 57.621,73.408 57.564 C 73.622 57.481,73.794 57.849,73.632 58.042 C 73.538 58.152,74.403 58.977,74.529 58.899 C 74.609 58.849,74.664 58.870,74.651 58.946 C 74.601 59.233,74.671 59.499,74.792 59.480 C 75.434 59.379,75.702 59.519,75.626 59.917 C 75.582 60.146,75.623 60.333,75.718 60.333 C 75.812 60.333,75.842 60.381,75.784 60.439 C 75.627 60.596,75.991 61.192,76.175 61.078 C 76.262 61.024,76.332 60.891,76.331 60.782 C 76.329 60.646,76.283 60.654,76.187 60.806 C 76.074 60.985,76.027 60.977,75.945 60.764 C 75.758 60.277,76.404 60.479,76.701 61.001 C 76.871 61.300,77.121 61.500,77.326 61.500 C 77.668 61.500,77.692 61.548,77.751 62.350 C 77.804 63.066,78.340 63.465,78.331 62.782 C 78.329 62.646,78.283 62.654,78.187 62.806 C 78.074 62.985,78.027 62.977,77.945 62.764 C 77.874 62.579,77.941 62.500,78.169 62.500 C 78.369 62.500,78.531 62.647,78.590 62.884 C 78.647 63.109,78.894 63.346,79.189 63.457 C 79.529 63.586,79.676 63.744,79.645 63.948 C 79.590 64.306,80.702 65.461,81.004 65.360 C 81.123 65.320,81.164 65.369,81.100 65.473 C 81.038 65.573,81.140 65.751,81.327 65.868 C 81.514 65.985,81.667 66.166,81.667 66.272 C 81.667 66.377,81.760 66.459,81.875 66.455 C 82.585 66.429,82.705 66.504,82.624 66.926 C 82.564 67.240,82.603 67.330,82.771 67.265 C 82.897 67.217,83.000 67.250,83.000 67.339 C 83.000 67.427,83.108 67.500,83.241 67.500 C 83.373 67.500,83.583 67.706,83.706 67.958 C 83.830 68.210,84.057 68.407,84.210 68.394 C 84.521 68.370,84.755 68.889,84.568 69.191 C 84.488 69.320,84.522 69.340,84.669 69.248 C 84.830 69.149,84.861 69.188,84.784 69.389 C 84.725 69.542,84.754 69.667,84.848 69.667 C 84.943 69.667,84.977 69.736,84.924 69.822 C 84.871 69.907,84.896 70.019,84.978 70.070 C 85.061 70.121,85.172 69.998,85.224 69.797 C 85.277 69.596,85.375 69.486,85.443 69.554 C 85.633 69.744,85.656 70.167,85.475 70.167 C 85.386 70.167,85.358 70.238,85.412 70.326 C 85.466 70.414,85.616 70.445,85.745 70.395 C 86.110 70.255,86.583 70.604,86.583 71.013 C 86.583 71.278,86.700 71.401,86.990 71.445 C 87.476 71.520,87.454 71.500,87.526 71.917 C 87.600 72.349,87.812 72.494,88.369 72.497 C 88.653 72.499,88.890 72.627,89.005 72.842 C 89.156 73.124,89.295 73.167,89.800 73.087 C 90.371 72.996,90.390 73.006,90.081 73.239 C 89.899 73.377,89.835 73.492,89.938 73.495 C 90.231 73.503,90.550 73.050,90.341 72.922 C 90.142 72.798,90.103 72.486,90.292 72.527 C 90.597 72.593,91.315 72.155,91.414 71.843 C 91.488 71.610,91.666 71.499,91.970 71.497 C 92.319 71.495,92.362 71.460,92.167 71.333 C 91.933 71.182,92.056 71.090,92.403 71.156 C 92.487 71.172,92.464 71.074,92.350 70.937 C 92.180 70.732,92.221 70.639,92.586 70.399 C 92.934 70.171,93.056 70.155,93.160 70.323 C 93.253 70.473,93.325 70.481,93.406 70.351 C 93.468 70.250,93.443 70.167,93.348 70.167 C 93.148 70.167,93.306 69.676,93.604 69.375 C 93.717 69.260,93.890 69.167,93.988 69.167 C 94.086 69.167,94.167 69.096,94.167 69.009 C 94.167 68.774,94.924 68.000,95.154 68.000 C 95.263 68.000,95.309 67.929,95.255 67.842 C 95.131 67.640,95.663 67.350,96.088 67.388 C 96.334 67.410,96.414 67.308,96.422 66.959 C 96.427 66.707,96.533 66.407,96.657 66.292 C 96.836 66.126,96.858 66.126,96.765 66.292 C 96.700 66.406,96.718 66.500,96.805 66.500 C 96.891 66.500,97.084 66.242,97.234 65.927 C 97.383 65.612,97.638 65.312,97.800 65.261 C 97.962 65.209,98.227 64.942,98.389 64.668 C 98.552 64.393,98.869 64.122,99.095 64.065 C 99.353 64.001,99.489 63.861,99.461 63.690 C 99.433 63.514,99.517 63.433,99.696 63.463 C 99.947 63.504,100.178 63.155,100.153 62.768 C 100.148 62.687,100.364 62.514,100.633 62.383 C 101.074 62.170,101.600 61.435,101.531 61.131 C 101.516 61.066,101.619 61.056,101.759 61.110 C 101.899 61.164,102.002 61.142,101.987 61.062 C 101.922 60.706,102.030 60.539,102.458 60.331 C 102.710 60.209,102.973 60.122,103.042 60.138 C 103.110 60.154,103.154 60.110,103.138 60.042 C 103.122 59.973,103.209 59.710,103.331 59.458 C 103.539 59.030,103.706 58.922,104.062 58.987 C 104.142 59.002,104.164 58.899,104.110 58.759 C 104.056 58.619,104.066 58.516,104.131 58.531 C 104.453 58.604,105.150 58.072,105.389 57.571 C 105.573 57.184,105.738 57.038,105.912 57.105 C 106.068 57.165,106.167 57.109,106.167 56.960 C 106.167 56.592,106.775 56.088,106.886 56.365 C 106.943 56.508,106.978 56.482,106.987 56.292 C 106.994 56.131,107.079 56.000,107.177 56.000 C 107.274 56.000,107.316 55.940,107.271 55.867 C 107.174 55.711,107.429 55.254,107.619 55.242 C 108.059 55.214,108.513 54.940,108.439 54.747 C 108.392 54.625,108.461 54.435,108.593 54.325 C 108.764 54.184,108.833 54.180,108.833 54.313 C 108.833 54.416,108.969 54.369,109.134 54.208 C 109.300 54.048,109.371 53.873,109.293 53.819 C 109.122 53.701,109.595 53.274,109.784 53.376 C 109.949 53.465,110.411 52.990,110.433 52.708 C 110.478 52.150,110.506 52.085,110.628 52.266 C 110.708 52.387,110.879 52.316,111.131 52.058 C 111.340 51.843,111.420 51.667,111.307 51.667 C 111.195 51.667,111.248 51.560,111.426 51.430 C 111.662 51.258,111.808 51.243,111.967 51.375 C 112.131 51.511,112.173 51.497,112.134 51.320 C 112.106 51.187,112.187 51.106,112.320 51.134 C 112.514 51.176,112.519 51.140,112.343 50.929 C 112.163 50.711,112.209 50.627,112.649 50.378 C 112.934 50.216,113.210 49.952,113.262 49.792 C 113.319 49.615,113.532 49.495,113.803 49.487 C 114.049 49.480,114.158 49.437,114.047 49.391 C 113.886 49.326,113.886 49.262,114.047 49.090 C 114.195 48.929,114.283 48.921,114.372 49.060 C 114.442 49.167,114.496 49.055,114.497 48.803 C 114.499 48.512,114.610 48.321,114.815 48.256 C 114.989 48.201,115.223 47.932,115.337 47.658 C 115.504 47.255,115.587 47.198,115.780 47.358 C 116.125 47.644,116.644 47.125,116.358 46.780 C 116.198 46.587,116.253 46.504,116.650 46.340 C 117.577 45.956,117.891 43.772,117.029 43.700 C 116.512 43.658,116.509 43.654,116.465 43.123 C 116.445 42.885,116.389 42.694,116.340 42.698 C 115.680 42.757,114.909 41.980,115.269 41.620 C 115.311 41.578,115.155 41.580,114.922 41.625 C 114.610 41.684,114.500 41.635,114.500 41.434 C 114.500 40.991,114.135 40.539,113.839 40.617 C 113.663 40.663,113.492 40.532,113.365 40.253 C 113.117 39.709,113.116 39.616,113.359 39.766 C 113.474 39.837,113.506 39.812,113.440 39.704 C 113.378 39.604,113.142 39.557,112.914 39.598 C 112.534 39.667,112.415 39.537,112.480 39.125 C 112.491 39.056,112.425 39.000,112.333 39.000 C 112.242 39.000,112.167 38.895,112.167 38.766 C 112.167 38.622,112.051 38.562,111.865 38.610 C 111.659 38.664,111.502 38.553,111.367 38.258 C 111.259 38.021,110.982 37.755,110.751 37.667 C 110.520 37.579,110.343 37.449,110.359 37.379 C 110.423 37.080,110.108 36.667,109.816 36.667 C 109.611 36.667,109.500 36.549,109.500 36.333 C 109.500 36.150,109.421 36.000,109.323 36.000 C 109.226 36.000,109.193 35.925,109.250 35.833 C 109.341 35.686,108.991 35.585,108.613 35.651 C 108.537 35.664,108.523 35.598,108.581 35.504 C 108.639 35.410,108.625 35.333,108.549 35.333 C 108.474 35.333,108.338 35.165,108.248 34.958 C 108.157 34.752,108.008 34.582,107.917 34.581 C 107.626 34.576,107.324 34.316,107.424 34.155 C 107.477 34.070,107.440 34.000,107.343 34.000 C 107.246 34.000,107.167 33.895,107.167 33.766 C 107.167 33.622,107.051 33.562,106.865 33.610 C 106.658 33.664,106.501 33.552,106.365 33.253 C 106.117 32.709,106.116 32.616,106.359 32.766 C 106.469 32.834,106.507 32.812,106.446 32.715 C 106.389 32.621,106.152 32.581,105.921 32.625 C 105.530 32.700,105.411 32.564,105.480 32.125 C 105.491 32.056,105.425 32.000,105.333 32.000 C 105.242 32.000,105.167 31.900,105.167 31.778 C 105.167 31.656,104.999 31.563,104.792 31.570 C 104.576 31.578,104.434 31.495,104.458 31.375 C 104.481 31.260,104.425 31.167,104.333 31.167 C 104.242 31.167,104.167 31.050,104.167 30.907 C 104.167 30.753,104.245 30.695,104.359 30.766 C 104.469 30.834,104.507 30.812,104.446 30.715 C 104.389 30.621,104.161 30.579,103.940 30.621 C 103.720 30.664,103.488 30.616,103.426 30.516 C 103.364 30.415,103.393 30.333,103.490 30.333 C 103.659 30.333,103.006 29.586,102.833 29.581 C 102.557 29.572,102.334 29.261,102.417 29.000 C 102.470 28.832,102.424 28.639,102.314 28.572 C 102.178 28.487,102.157 28.523,102.249 28.683 C 102.353 28.865,102.336 28.874,102.171 28.721 C 102.055 28.614,101.857 28.565,101.732 28.613 C 101.499 28.703,101.092 27.923,101.244 27.677 C 101.287 27.606,101.138 27.584,100.912 27.627 C 100.546 27.697,100.500 27.648,100.500 27.196 C 100.500 26.916,100.413 26.633,100.308 26.567 C 100.177 26.487,100.160 26.524,100.256 26.683 C 100.373 26.877,100.353 26.880,100.133 26.702 C 99.987 26.585,99.767 26.510,99.643 26.536 C 99.518 26.562,99.435 26.490,99.458 26.375 C 99.481 26.260,99.421 26.167,99.323 26.167 C 99.226 26.167,99.192 26.094,99.247 26.005 C 99.302 25.916,99.156 25.795,98.923 25.737 C 98.595 25.654,98.500 25.525,98.500 25.158 C 98.500 24.899,98.413 24.633,98.308 24.567 C 98.177 24.487,98.160 24.524,98.256 24.683 C 98.377 24.883,98.356 24.883,98.111 24.685 C 97.954 24.557,97.778 24.500,97.721 24.557 C 97.663 24.615,97.515 24.467,97.391 24.228 C 97.117 23.699,97.111 23.612,97.359 23.766 C 97.472 23.836,97.506 23.812,97.442 23.708 C 97.382 23.611,97.164 23.568,96.958 23.613 C 96.678 23.675,96.642 23.654,96.816 23.531 C 97.007 23.396,96.984 23.326,96.691 23.143 C 96.494 23.020,96.333 22.835,96.333 22.732 C 96.333 22.628,96.165 22.552,95.958 22.563 C 95.677 22.578,95.569 22.479,95.528 22.167 C 95.497 21.938,95.392 21.675,95.295 21.583 C 95.172 21.468,95.161 21.493,95.258 21.667 C 95.375 21.877,95.355 21.882,95.133 21.702 C 94.987 21.585,94.770 21.510,94.650 21.536 C 94.443 21.581,94.403 21.497,94.354 20.917 C 94.343 20.779,94.277 20.676,94.208 20.686 C 93.791 20.752,93.530 20.616,93.360 20.242 C 93.114 19.703,93.117 19.618,93.375 19.767 C 93.496 19.837,93.525 19.823,93.444 19.735 C 93.368 19.652,93.106 19.583,92.861 19.583 C 92.617 19.583,92.408 19.490,92.396 19.375 C 92.385 19.260,92.366 19.054,92.354 18.917 C 92.343 18.779,92.277 18.676,92.208 18.686 C 91.791 18.752,91.530 18.616,91.360 18.242 C 91.117 17.709,91.117 17.616,91.359 17.766 C 91.474 17.837,91.506 17.812,91.440 17.704 C 91.378 17.604,91.140 17.557,90.911 17.599 C 90.582 17.658,90.460 17.584,90.331 17.244 C 90.231 16.981,90.092 16.860,89.975 16.932 C 89.858 17.005,89.827 16.979,89.896 16.866 C 89.959 16.765,90.140 16.721,90.297 16.770 C 90.547 16.847,90.545 16.834,90.283 16.666 C 90.060 16.523,89.924 16.522,89.756 16.662 C 89.624 16.771,89.490 16.786,89.435 16.696 C 89.329 16.525,88.506 16.480,88.527 16.646 M80.743 23.844 C 80.683 23.942,80.673 24.062,80.722 24.111 C 80.842 24.230,81.167 24.020,81.167 23.823 C 81.167 23.611,80.879 23.625,80.743 23.844 M88.742 25.375 C 88.787 25.581,88.845 27.200,88.870 28.972 C 88.911 31.815,88.951 32.219,89.208 32.407 C 89.369 32.524,89.501 32.762,89.502 32.935 C 89.507 33.608,89.730 34.025,90.230 34.296 C 90.732 34.570,90.841 34.606,91.292 34.647 C 91.406 34.658,91.499 34.798,91.497 34.958 C 91.495 35.188,91.464 35.201,91.350 35.021 C 91.270 34.896,91.103 34.827,90.978 34.869 C 90.831 34.919,90.928 35.042,91.250 35.216 C 91.881 35.556,92.442 36.159,92.659 36.730 C 92.833 37.188,93.406 37.500,94.073 37.500 C 94.391 37.500,94.475 37.612,94.562 38.155 C 94.685 38.926,95.309 39.500,96.022 39.500 C 96.466 39.500,96.573 39.631,96.517 40.104 C 96.483 40.391,98.290 42.213,98.488 42.091 C 98.594 42.025,98.624 42.085,98.564 42.241 C 98.487 42.441,98.583 42.500,98.982 42.500 C 99.416 42.500,99.500 42.564,99.500 42.896 C 99.500 43.462,100.499 44.500,101.045 44.500 C 101.289 44.500,101.556 44.629,101.646 44.792 C 101.791 45.050,102.210 45.094,105.363 45.175 C 107.318 45.225,109.036 45.322,109.181 45.391 C 109.448 45.516,107.036 48.167,106.656 48.167 C 106.570 48.167,106.500 48.223,106.500 48.293 C 106.500 48.467,103.941 51.167,103.776 51.167 C 103.623 51.167,103.167 51.595,103.167 51.739 C 103.167 52.056,89.991 65.023,89.721 64.970 C 89.436 64.915,89.416 64.643,89.405 60.747 L 89.394 56.583 89.012 56.564 C 88.583 56.541,88.321 56.227,88.450 55.890 C 88.497 55.767,88.453 55.657,88.351 55.646 C 88.250 55.634,88.092 55.606,88.000 55.583 C 87.908 55.560,87.763 55.532,87.678 55.521 C 87.592 55.509,87.498 55.310,87.469 55.078 C 87.440 54.846,87.342 54.645,87.250 54.631 C 87.158 54.617,86.938 54.413,86.761 54.178 C 86.583 53.943,86.414 53.719,86.386 53.680 C 86.357 53.642,86.164 53.599,85.958 53.583 C 85.684 53.563,85.561 53.426,85.498 53.070 C 85.452 52.802,85.359 52.621,85.291 52.667 C 85.224 52.712,84.969 52.469,84.725 52.125 C 84.428 51.707,84.151 51.500,83.890 51.500 C 83.521 51.500,83.426 51.352,83.488 50.875 C 83.513 50.678,83.420 50.638,82.835 50.599 C 82.695 50.590,82.549 50.365,82.501 50.083 C 82.433 49.688,82.319 49.572,81.958 49.531 C 81.597 49.489,81.500 49.391,81.500 49.068 C 81.500 48.749,81.393 48.637,81.017 48.562 C 80.661 48.490,80.511 48.347,80.444 48.012 C 80.326 47.421,79.376 46.500,78.885 46.500 C 78.594 46.500,78.500 46.406,78.500 46.115 C 78.500 45.903,78.271 45.495,77.990 45.208 L 77.480 44.687 73.509 44.751 C 67.985 44.840,67.987 45.383,73.496 39.917 C 73.588 39.825,76.738 36.656,80.495 32.875 C 84.252 29.094,87.371 26.000,87.425 26.000 C 87.583 26.000,87.926 25.609,88.046 25.292 C 88.203 24.877,88.645 24.930,88.742 25.375 M76.833 27.917 C 76.663 28.121,76.675 28.167,76.896 28.167 C 77.045 28.167,77.167 28.054,77.167 27.917 C 77.167 27.779,77.138 27.667,77.104 27.667 C 77.069 27.667,76.947 27.779,76.833 27.917 M74.375 30.971 C 74.260 31.044,74.049 31.249,73.904 31.427 C 73.760 31.604,73.673 31.675,73.712 31.583 C 73.750 31.492,73.829 31.285,73.886 31.125 C 73.943 30.965,74.123 30.834,74.286 30.836 C 74.497 30.838,74.523 30.877,74.375 30.971 M73.667 32.230 C 73.667 32.264,73.554 32.386,73.417 32.500 C 73.212 32.670,73.167 32.659,73.167 32.437 C 73.167 32.288,73.279 32.167,73.417 32.167 C 73.554 32.167,73.667 32.195,73.667 32.230 M62.833 41.917 C 62.663 42.121,62.675 42.167,62.896 42.167 C 63.045 42.167,63.167 42.054,63.167 41.917 C 63.167 41.779,63.138 41.667,63.104 41.667 C 63.069 41.667,62.947 41.779,62.833 41.917 " stroke="none" fill="#93e048" fill-rule="evenodd"></path><path id="path1" d="M88.082 16.669 C 88.024 16.763,87.896 16.788,87.796 16.727 C 87.692 16.663,87.663 16.692,87.727 16.796 C 87.788 16.896,87.763 17.024,87.669 17.082 C 87.358 17.274,87.482 17.640,87.827 17.550 C 88.007 17.503,88.139 17.405,88.119 17.332 C 88.099 17.259,88.150 17.199,88.231 17.198 C 88.432 17.194,88.664 16.798,88.563 16.633 C 88.448 16.448,88.207 16.467,88.082 16.669 M89.979 16.782 C 89.823 16.974,89.816 17.024,89.959 16.939 C 90.094 16.857,90.224 16.962,90.330 17.240 C 90.419 17.475,90.587 17.661,90.704 17.654 C 90.871 17.643,90.872 17.622,90.708 17.556 C 90.594 17.510,90.500 17.328,90.500 17.153 C 90.500 16.977,90.421 16.833,90.323 16.833 C 90.226 16.833,90.193 16.758,90.250 16.667 C 90.418 16.395,90.226 16.477,89.979 16.782 M91.190 17.894 C 91.308 18.156,91.434 18.280,91.471 18.169 C 91.508 18.058,91.412 17.843,91.257 17.692 C 90.994 17.434,90.990 17.447,91.190 17.894 M87.500 18.210 C 87.500 18.356,87.369 18.510,87.208 18.552 C 86.935 18.623,86.935 18.629,87.214 18.647 C 87.515 18.667,87.794 18.239,87.604 18.048 C 87.547 17.991,87.500 18.064,87.500 18.210 M85.958 18.622 C 85.798 18.660,85.667 18.754,85.667 18.832 C 85.667 18.909,85.616 19.104,85.555 19.264 C 85.471 19.483,85.502 19.521,85.680 19.420 C 85.866 19.313,85.874 19.330,85.719 19.498 C 85.611 19.615,85.348 19.720,85.136 19.731 C 84.924 19.741,84.740 19.862,84.728 20.000 C 84.715 20.137,84.696 20.335,84.686 20.440 C 84.675 20.544,84.573 20.626,84.458 20.622 C 83.884 20.601,83.694 20.702,83.599 21.081 C 83.536 21.330,83.337 21.535,83.097 21.595 C 82.680 21.699,82.404 22.304,82.658 22.558 C 82.898 22.798,83.217 22.511,83.000 22.250 C 82.883 22.110,82.876 21.993,82.980 21.929 C 83.070 21.873,83.199 21.917,83.266 22.026 C 83.348 22.159,83.432 22.106,83.522 21.862 C 83.596 21.663,83.780 21.500,83.932 21.500 C 84.150 21.500,84.167 21.451,84.012 21.265 C 83.889 21.117,83.878 20.992,83.980 20.929 C 84.070 20.873,84.188 20.899,84.242 20.986 C 84.295 21.074,84.535 20.964,84.774 20.742 C 85.013 20.521,85.286 20.387,85.380 20.446 C 85.474 20.504,85.505 20.476,85.448 20.384 C 85.391 20.292,85.495 20.055,85.680 19.858 C 85.864 19.660,85.992 19.368,85.965 19.208 C 85.930 18.995,86.013 18.930,86.271 18.965 C 86.466 18.992,86.664 18.914,86.711 18.791 C 86.799 18.563,86.494 18.494,85.958 18.622 M91.500 18.553 C 91.546 18.598,91.733 18.661,91.917 18.692 C 92.100 18.724,92.306 18.862,92.374 19.000 C 92.465 19.184,92.486 19.162,92.455 18.917 C 92.426 18.682,92.266 18.567,91.915 18.527 C 91.641 18.496,91.454 18.508,91.500 18.553 M93.190 19.894 C 93.308 20.156,93.434 20.280,93.471 20.169 C 93.508 20.058,93.412 19.843,93.257 19.692 C 92.994 19.434,92.990 19.447,93.190 19.894 M93.500 20.553 C 93.546 20.598,93.733 20.661,93.917 20.692 C 94.100 20.724,94.306 20.862,94.374 21.000 C 94.465 21.184,94.486 21.162,94.455 20.917 C 94.426 20.682,94.266 20.567,93.915 20.527 C 93.641 20.496,93.454 20.508,93.500 20.553 M96.333 22.701 C 96.333 22.821,96.494 23.020,96.691 23.143 C 96.980 23.324,97.004 23.395,96.816 23.514 C 96.618 23.639,96.618 23.662,96.815 23.664 C 96.942 23.666,97.144 23.798,97.264 23.958 C 97.464 24.228,97.479 24.222,97.456 23.887 C 97.442 23.687,97.371 23.560,97.299 23.605 C 97.226 23.650,97.167 23.618,97.167 23.534 C 97.167 23.450,96.979 23.180,96.750 22.932 C 96.521 22.685,96.333 22.581,96.333 22.701 M81.778 22.778 C 81.536 23.020,81.667 23.667,81.958 23.664 C 82.372 23.660,82.575 23.474,82.635 23.042 C 82.687 22.670,82.074 22.482,81.778 22.778 M81.167 23.766 C 81.167 23.912,81.017 24.070,80.833 24.118 C 80.650 24.166,80.500 24.272,80.500 24.353 C 80.500 24.604,80.818 24.515,81.167 24.167 C 81.525 23.808,81.602 23.500,81.333 23.500 C 81.242 23.500,81.167 23.620,81.167 23.766 M79.942 24.971 C 79.791 25.139,79.667 25.369,79.667 25.481 C 79.667 25.594,79.597 25.643,79.511 25.590 C 79.298 25.459,78.482 26.299,78.453 26.678 C 78.436 26.902,78.375 26.937,78.222 26.810 C 77.976 26.606,77.619 26.781,77.719 27.057 C 77.757 27.163,77.719 27.400,77.635 27.583 C 77.484 27.911,77.486 27.911,77.741 27.593 C 77.893 27.404,78.000 27.358,78.000 27.482 C 78.000 27.599,78.094 27.663,78.208 27.625 C 78.323 27.587,78.417 27.474,78.417 27.375 C 78.417 27.276,78.473 27.138,78.542 27.069 C 78.610 27.001,78.667 26.803,78.667 26.629 C 78.667 26.456,78.732 26.354,78.812 26.404 C 78.982 26.509,79.897 25.675,80.051 25.275 C 80.109 25.124,80.252 25.006,80.370 25.013 C 80.537 25.023,80.538 25.045,80.375 25.110 C 80.260 25.157,80.169 25.319,80.172 25.472 C 80.177 25.712,80.211 25.705,80.422 25.426 C 80.930 24.754,80.505 24.350,79.942 24.971 M88.046 25.292 C 87.926 25.609,87.583 26.000,87.425 26.000 C 87.371 26.000,84.252 29.094,80.495 32.875 C 76.738 36.656,73.588 39.825,73.496 39.917 C 67.991 45.379,68.002 44.844,73.394 44.741 C 77.941 44.654,78.396 44.584,78.468 43.963 C 78.508 43.623,78.624 43.508,78.968 43.468 C 79.315 43.428,79.428 43.315,79.468 42.968 C 79.508 42.622,79.622 42.508,79.968 42.468 C 80.315 42.428,80.428 42.315,80.468 41.968 C 80.508 41.622,80.622 41.508,80.968 41.468 C 81.315 41.428,81.428 41.315,81.468 40.968 C 81.508 40.622,81.622 40.508,81.968 40.468 C 82.315 40.428,82.428 40.315,82.468 39.968 C 82.508 39.622,82.622 39.508,82.968 39.468 C 83.315 39.428,83.428 39.315,83.468 38.968 C 83.508 38.622,83.622 38.508,83.968 38.468 C 84.315 38.428,84.428 38.315,84.468 37.968 C 84.508 37.622,84.622 37.508,84.968 37.468 C 85.315 37.428,85.428 37.315,85.468 36.968 C 85.508 36.622,85.622 36.508,85.968 36.468 C 86.315 36.428,86.428 36.315,86.468 35.968 C 86.508 35.622,86.622 35.508,86.968 35.468 C 87.315 35.428,87.428 35.315,87.468 34.968 C 87.508 34.622,87.622 34.508,87.968 34.468 C 88.318 34.428,88.428 34.315,88.469 33.958 C 88.514 33.574,88.602 33.500,89.011 33.500 C 89.590 33.500,89.719 32.780,89.208 32.407 C 88.951 32.219,88.911 31.815,88.870 28.972 C 88.845 27.200,88.787 25.581,88.742 25.375 C 88.645 24.930,88.203 24.877,88.046 25.292 M98.876 25.686 C 99.129 25.783,99.293 25.930,99.241 26.014 C 99.189 26.098,99.232 26.167,99.336 26.167 C 99.786 26.167,99.389 25.582,98.915 25.547 L 98.417 25.511 98.876 25.686 M100.779 27.613 C 100.998 27.658,101.211 27.887,101.318 28.195 C 101.433 28.523,101.578 28.672,101.728 28.615 C 101.855 28.566,102.035 28.602,102.128 28.694 C 102.241 28.807,102.338 28.789,102.425 28.640 C 102.495 28.517,102.491 28.474,102.414 28.543 C 102.255 28.688,101.500 28.038,101.500 27.756 C 101.500 27.654,101.256 27.564,100.958 27.555 C 100.655 27.547,100.576 27.572,100.779 27.613 M77.169 27.875 C 77.168 28.040,77.040 28.168,76.875 28.169 C 76.626 28.171,76.620 28.195,76.833 28.333 C 77.029 28.460,76.986 28.495,76.635 28.497 C 76.388 28.499,76.139 28.576,76.082 28.669 C 76.024 28.763,75.888 28.788,75.780 28.726 C 75.672 28.664,75.639 28.675,75.707 28.750 C 75.775 28.825,75.753 28.979,75.659 29.092 C 75.565 29.205,75.500 29.362,75.514 29.441 C 75.588 29.852,75.494 30.083,75.348 29.851 C 75.267 29.723,75.080 29.664,74.933 29.720 C 74.619 29.841,74.573 30.332,74.875 30.336 C 75.017 30.338,75.003 30.396,74.833 30.518 C 74.625 30.668,74.635 30.681,74.889 30.599 C 75.057 30.545,75.255 30.500,75.329 30.500 C 75.403 30.500,75.509 30.322,75.563 30.104 C 75.618 29.886,75.851 29.584,76.081 29.433 C 76.312 29.282,76.500 29.048,76.500 28.913 C 76.500 28.777,76.596 28.667,76.713 28.667 C 77.060 28.667,77.481 28.071,77.317 27.812 C 77.202 27.632,77.171 27.645,77.169 27.875 M103.159 29.819 C 103.253 29.994,103.424 30.176,103.540 30.222 C 103.704 30.288,103.702 30.310,103.532 30.320 C 103.189 30.341,103.482 30.667,103.843 30.667 C 104.021 30.667,104.167 30.779,104.167 30.917 C 104.167 31.054,104.237 31.167,104.323 31.167 C 104.409 31.167,104.468 31.022,104.455 30.845 C 104.442 30.668,104.371 30.560,104.299 30.605 C 104.226 30.650,104.167 30.583,104.167 30.457 C 104.167 30.201,103.428 29.500,103.160 29.500 C 103.043 29.500,103.042 29.601,103.159 29.819 M73.878 31.181 C 73.807 31.451,73.752 31.479,73.631 31.306 C 73.506 31.128,73.488 31.134,73.542 31.332 C 73.580 31.469,73.456 31.658,73.267 31.752 C 73.078 31.846,72.840 32.090,72.738 32.294 C 72.637 32.498,72.510 32.622,72.458 32.569 C 72.293 32.404,71.333 33.532,71.333 33.890 C 71.333 34.224,71.338 34.224,71.569 33.909 C 71.698 33.732,71.761 33.518,71.709 33.434 C 71.658 33.350,71.692 33.329,71.786 33.388 C 71.976 33.505,72.886 32.705,73.051 32.275 C 73.109 32.124,73.271 32.000,73.411 32.000 C 73.552 32.000,73.667 31.936,73.667 31.858 C 73.667 31.779,73.851 31.517,74.075 31.274 C 74.384 30.942,74.421 30.833,74.226 30.833 C 74.085 30.833,73.928 30.990,73.878 31.181 M105.167 31.750 C 105.167 31.887,105.242 32.000,105.333 32.000 C 105.425 32.000,105.500 31.887,105.500 31.750 C 105.500 31.613,105.425 31.500,105.333 31.500 C 105.242 31.500,105.167 31.613,105.167 31.750 M73.167 32.437 C 73.167 32.659,73.212 32.670,73.417 32.500 C 73.554 32.386,73.667 32.264,73.667 32.230 C 73.667 32.195,73.554 32.167,73.417 32.167 C 73.279 32.167,73.167 32.288,73.167 32.437 M105.770 32.615 C 105.965 32.653,106.203 32.849,106.300 33.050 C 106.420 33.297,106.481 33.332,106.489 33.158 C 106.505 32.795,106.161 32.496,105.758 32.523 C 105.427 32.545,105.427 32.548,105.770 32.615 M107.167 33.750 C 107.167 33.887,107.242 34.000,107.333 34.000 C 107.425 34.000,107.500 33.887,107.500 33.750 C 107.500 33.612,107.425 33.500,107.333 33.500 C 107.242 33.500,107.167 33.612,107.167 33.750 M70.444 34.444 C 70.383 34.506,70.333 34.706,70.333 34.889 C 70.333 35.072,70.390 35.166,70.458 35.097 C 70.527 35.028,70.583 34.885,70.583 34.778 C 70.583 34.671,70.671 34.583,70.778 34.583 C 70.885 34.583,71.028 34.527,71.097 34.458 C 71.166 34.390,71.072 34.333,70.889 34.333 C 70.706 34.333,70.506 34.383,70.444 34.444 M90.818 34.676 C 90.620 34.799,90.626 34.864,90.859 35.097 C 91.151 35.390,91.500 35.296,91.500 34.925 C 91.500 34.633,91.115 34.493,90.818 34.676 M108.224 34.915 C 108.330 35.144,108.477 35.331,108.552 35.332 C 108.626 35.333,108.639 35.410,108.581 35.504 C 108.523 35.598,108.537 35.664,108.613 35.651 C 108.991 35.585,109.341 35.686,109.250 35.833 C 109.193 35.925,109.226 36.000,109.323 36.000 C 109.660 36.000,109.498 35.472,109.013 34.987 C 108.384 34.358,107.947 34.318,108.224 34.915 M69.125 35.550 C 68.873 35.650,68.655 35.829,68.642 35.949 C 68.628 36.069,68.609 36.260,68.600 36.375 C 68.591 36.490,68.435 36.660,68.253 36.753 C 68.072 36.847,67.846 37.078,67.752 37.267 C 67.658 37.456,67.492 37.581,67.384 37.545 C 67.102 37.451,66.500 38.105,66.500 38.506 C 66.500 38.807,66.557 38.786,67.010 38.323 C 67.291 38.036,67.778 37.730,68.094 37.643 C 68.409 37.556,68.667 37.413,68.667 37.325 C 68.667 37.091,68.208 37.132,68.110 37.375 C 68.045 37.538,68.023 37.537,68.013 37.370 C 68.006 37.252,68.115 37.112,68.256 37.058 C 68.671 36.899,69.500 36.110,69.500 35.874 C 69.500 35.754,69.669 35.588,69.875 35.505 C 70.213 35.369,70.217 35.355,69.917 35.362 C 69.733 35.366,69.377 35.450,69.125 35.550 M91.756 35.736 C 91.901 35.957,92.134 36.183,92.274 36.236 C 92.414 36.290,92.316 36.109,92.057 35.834 C 91.485 35.228,91.407 35.203,91.756 35.736 M109.746 36.622 C 110.114 36.716,110.512 37.178,110.392 37.373 C 110.349 37.443,110.499 37.571,110.727 37.658 C 110.954 37.744,111.219 37.950,111.315 38.116 C 111.467 38.378,111.491 38.356,111.495 37.948 C 111.498 37.678,111.430 37.524,111.333 37.583 C 111.242 37.640,111.167 37.618,111.167 37.534 C 111.167 37.162,110.330 36.501,109.883 36.519 C 109.536 36.534,109.501 36.560,109.746 36.622 M112.167 38.750 C 112.167 38.887,112.242 39.000,112.333 39.000 C 112.425 39.000,112.500 38.887,112.500 38.750 C 112.500 38.612,112.425 38.500,112.333 38.500 C 112.242 38.500,112.167 38.612,112.167 38.750 M65.720 38.933 C 65.664 39.080,65.723 39.267,65.851 39.348 C 66.046 39.471,66.043 39.498,65.833 39.517 C 65.696 39.529,65.508 39.556,65.417 39.577 C 65.325 39.598,65.134 39.627,64.992 39.641 C 64.850 39.655,64.644 39.916,64.533 40.220 C 64.319 40.815,64.263 41.475,64.470 40.978 C 64.643 40.562,65.991 39.500,66.346 39.500 C 66.620 39.500,66.636 39.448,66.470 39.083 C 66.255 38.611,65.873 38.535,65.720 38.933 M96.167 39.750 C 96.281 39.887,96.438 40.000,96.515 40.000 C 96.593 40.000,96.613 39.887,96.560 39.750 C 96.508 39.612,96.351 39.500,96.212 39.500 C 96.006 39.500,95.998 39.546,96.167 39.750 M113.190 39.894 C 113.308 40.156,113.434 40.280,113.471 40.169 C 113.508 40.058,113.412 39.843,113.257 39.692 C 112.994 39.434,112.990 39.447,113.190 39.894 M96.500 40.401 C 96.500 40.775,98.350 42.382,98.542 42.176 C 98.709 41.995,98.707 41.975,98.532 42.075 C 98.389 42.156,98.001 41.870,97.407 41.247 C 96.908 40.724,96.500 40.343,96.500 40.401 M63.520 41.458 C 63.588 41.889,63.493 42.080,63.333 41.833 C 63.194 41.617,63.171 41.621,63.169 41.863 C 63.168 42.016,63.035 42.169,62.875 42.201 C 62.635 42.249,62.628 42.277,62.833 42.355 C 62.983 42.413,63.310 42.227,63.649 41.892 C 64.162 41.385,64.182 41.333,63.858 41.333 C 63.661 41.333,63.509 41.390,63.520 41.458 M114.805 41.617 C 115.048 41.665,115.257 41.876,115.363 42.180 C 115.461 42.461,115.653 42.667,115.816 42.667 C 115.972 42.667,116.178 42.744,116.272 42.839 C 116.391 42.957,116.444 42.927,116.444 42.741 C 116.444 42.261,115.598 41.576,114.983 41.557 C 114.634 41.546,114.566 41.569,114.805 41.617 M61.818 42.821 C 61.672 42.982,61.547 43.370,61.540 43.682 L 61.528 44.250 61.803 43.625 C 61.955 43.281,62.164 43.000,62.269 43.000 C 62.374 43.000,62.553 42.887,62.667 42.750 C 62.980 42.373,62.162 42.441,61.818 42.821 M116.500 43.564 C 116.500 43.705,117.348 43.779,117.430 43.644 C 117.480 43.565,117.290 43.500,117.010 43.500 C 116.729 43.500,116.500 43.529,116.500 43.564 M100.745 44.917 C 100.702 45.054,100.634 45.273,100.594 45.404 C 100.553 45.534,100.350 45.665,100.142 45.695 C 99.901 45.730,99.729 45.899,99.667 46.161 C 99.608 46.415,99.418 46.607,99.167 46.667 C 98.916 46.726,98.726 46.918,98.666 47.173 C 98.599 47.462,98.439 47.599,98.129 47.635 C 97.789 47.675,97.675 47.791,97.635 48.135 C 97.595 48.482,97.482 48.595,97.135 48.635 C 96.791 48.675,96.675 48.789,96.635 49.129 C 96.599 49.439,96.462 49.599,96.173 49.666 C 95.918 49.726,95.726 49.916,95.667 50.167 C 95.608 50.415,95.415 50.608,95.167 50.667 C 94.918 50.725,94.725 50.918,94.667 51.167 C 94.608 51.415,94.415 51.608,94.167 51.667 C 93.918 51.725,93.725 51.918,93.667 52.167 C 93.608 52.415,93.415 52.608,93.167 52.667 C 92.916 52.726,92.726 52.918,92.666 53.173 C 92.599 53.462,92.439 53.599,92.129 53.635 C 91.791 53.675,91.675 53.791,91.635 54.129 C 91.599 54.439,91.462 54.599,91.173 54.666 C 90.915 54.726,90.726 54.915,90.666 55.173 C 90.598 55.465,90.439 55.599,90.118 55.636 C 89.765 55.677,89.667 55.777,89.667 56.094 C 89.667 56.317,89.605 56.500,89.529 56.500 C 89.203 56.500,89.395 64.907,89.721 64.970 C 89.991 65.023,103.167 52.056,103.167 51.739 C 103.167 51.595,103.623 51.167,103.776 51.167 C 103.941 51.167,106.500 48.467,106.500 48.293 C 106.500 48.223,106.570 48.167,106.656 48.167 C 107.036 48.167,109.448 45.516,109.181 45.391 C 109.036 45.322,107.310 45.225,105.347 45.175 C 102.706 45.107,101.759 45.029,101.708 44.875 C 101.611 44.582,100.839 44.615,100.745 44.917 M117.256 45.815 C 117.201 45.989,116.934 46.223,116.663 46.335 C 116.392 46.447,116.208 46.599,116.254 46.673 C 116.361 46.847,115.847 47.361,115.673 47.254 C 115.599 47.208,115.450 47.386,115.341 47.649 C 115.232 47.911,114.980 48.203,114.780 48.296 C 114.446 48.453,114.459 48.466,114.938 48.459 C 115.373 48.452,115.458 48.385,115.458 48.052 C 115.458 47.565,115.560 47.452,116.029 47.418 C 116.272 47.400,116.400 47.272,116.418 47.029 C 116.452 46.560,116.565 46.458,117.052 46.458 C 117.377 46.458,117.453 46.370,117.464 45.979 C 117.480 45.426,117.399 45.363,117.256 45.815 M61.620 46.672 C 61.741 47.137,62.308 47.430,62.560 47.158 C 62.704 47.001,62.700 46.980,62.542 47.069 C 62.427 47.133,62.333 47.107,62.333 47.010 C 62.333 46.913,62.413 46.833,62.510 46.833 C 62.607 46.833,62.637 46.754,62.577 46.657 C 62.508 46.544,62.392 46.584,62.259 46.765 C 62.037 47.069,61.718 46.822,61.917 46.500 C 61.973 46.408,61.910 46.333,61.775 46.333 C 61.612 46.333,61.560 46.445,61.620 46.672 M63.617 48.661 C 63.806 49.383,64.506 49.541,64.606 48.885 C 64.643 48.641,64.548 48.507,64.288 48.437 C 63.665 48.270,63.527 48.316,63.617 48.661 M114.049 49.087 C 113.891 49.257,113.899 49.323,114.085 49.394 C 114.367 49.502,114.525 49.309,114.364 49.052 C 114.284 48.925,114.190 48.935,114.049 49.087 M81.500 49.250 C 81.500 49.387,81.622 49.500,81.770 49.500 C 81.992 49.500,82.003 49.455,81.833 49.250 C 81.719 49.112,81.598 49.000,81.563 49.000 C 81.528 49.000,81.500 49.112,81.500 49.250 M113.262 49.792 C 113.210 49.952,112.937 50.214,112.656 50.373 C 112.375 50.533,112.187 50.731,112.237 50.813 C 112.333 50.968,112.039 51.284,111.750 51.334 C 111.658 51.350,111.471 51.435,111.333 51.523 C 111.157 51.636,111.206 51.647,111.500 51.563 C 111.729 51.497,112.039 51.450,112.188 51.460 C 112.369 51.471,112.458 51.340,112.458 51.064 C 112.458 50.552,112.550 50.458,113.052 50.458 C 113.377 50.458,113.453 50.370,113.464 49.979 C 113.480 49.436,113.400 49.362,113.262 49.792 M82.500 50.220 C 82.500 50.531,82.772 50.734,82.903 50.522 C 82.954 50.439,82.885 50.278,82.748 50.165 C 82.546 49.998,82.500 50.008,82.500 50.220 M65.620 50.672 C 65.741 51.137,66.308 51.430,66.560 51.158 C 66.704 51.001,66.700 50.980,66.542 51.069 C 66.427 51.133,66.333 51.107,66.333 51.010 C 66.333 50.913,66.413 50.833,66.510 50.833 C 66.607 50.833,66.637 50.754,66.577 50.657 C 66.508 50.544,66.392 50.584,66.259 50.765 C 66.037 51.069,65.718 50.822,65.917 50.500 C 65.973 50.408,65.910 50.333,65.775 50.333 C 65.612 50.333,65.560 50.445,65.620 50.672 M84.786 52.237 C 85.112 52.672,85.230 52.693,85.074 52.287 C 85.019 52.143,84.865 51.984,84.732 51.933 C 84.549 51.863,84.563 51.938,84.786 52.237 M111.042 52.083 C 110.763 52.399,110.779 52.478,111.111 52.430 C 111.264 52.407,111.407 52.264,111.430 52.111 C 111.479 51.775,111.323 51.763,111.042 52.083 M68.816 53.277 C 68.103 53.468,68.968 54.500,69.841 54.500 C 70.161 54.500,70.161 54.495,69.833 54.167 C 69.650 53.983,69.500 53.758,69.500 53.667 C 69.500 53.575,69.383 53.500,69.240 53.500 C 69.097 53.500,69.027 53.425,69.083 53.333 C 69.140 53.242,69.163 53.175,69.135 53.186 C 69.107 53.197,68.963 53.238,68.816 53.277 M108.008 55.158 C 107.875 55.242,107.710 55.277,107.641 55.234 C 107.481 55.135,107.145 55.756,107.284 55.895 C 107.342 55.953,107.301 56.000,107.194 56.000 C 107.087 56.000,107.001 56.131,107.003 56.292 C 107.005 56.520,107.036 56.534,107.149 56.356 C 107.271 56.164,107.307 56.164,107.383 56.356 C 107.433 56.481,107.480 56.340,107.487 56.042 C 107.496 55.666,107.580 55.500,107.762 55.500 C 107.906 55.500,108.136 55.387,108.274 55.250 C 108.550 54.974,108.388 54.918,108.008 55.158 M70.750 55.500 C 70.933 55.579,70.990 55.649,70.875 55.655 C 70.551 55.673,70.630 56.135,70.989 56.327 C 71.166 56.422,71.523 56.491,71.781 56.481 C 72.062 56.469,72.133 56.431,71.958 56.385 C 71.798 56.343,71.667 56.167,71.667 55.994 C 71.667 55.649,71.196 55.327,70.719 55.345 C 70.448 55.356,70.451 55.372,70.750 55.500 M106.443 56.470 C 106.291 56.639,106.167 56.872,106.167 56.989 C 106.167 57.112,106.059 57.161,105.912 57.105 C 105.738 57.038,105.573 57.184,105.389 57.571 C 105.150 58.072,104.453 58.604,104.131 58.531 C 104.066 58.516,104.056 58.619,104.110 58.759 C 104.164 58.899,104.142 59.002,104.062 58.987 C 103.706 58.922,103.539 59.030,103.331 59.458 C 103.209 59.710,103.122 59.973,103.138 60.042 C 103.154 60.110,103.110 60.154,103.042 60.138 C 102.973 60.122,102.710 60.209,102.458 60.331 C 102.030 60.539,101.922 60.706,101.987 61.062 C 102.002 61.142,101.899 61.164,101.759 61.110 C 101.619 61.056,101.519 61.066,101.537 61.131 C 101.589 61.316,101.142 62.061,100.850 62.276 C 100.629 62.439,100.658 62.465,101.030 62.443 C 101.273 62.429,101.469 62.379,101.466 62.333 C 101.424 61.718,101.538 61.518,101.958 61.469 C 102.318 61.428,102.428 61.318,102.469 60.958 C 102.518 60.533,102.793 60.388,103.375 60.480 C 103.444 60.491,103.491 60.444,103.480 60.375 C 103.388 59.793,103.533 59.518,103.958 59.469 C 104.318 59.428,104.428 59.318,104.469 58.958 C 104.519 58.524,104.715 58.413,105.292 58.488 C 105.419 58.504,105.500 58.316,105.500 58.007 C 105.500 57.516,105.656 57.410,106.271 57.483 C 106.374 57.495,106.458 57.308,106.458 57.067 C 106.458 56.826,106.559 56.566,106.683 56.490 C 106.806 56.414,106.865 56.309,106.814 56.258 C 106.762 56.207,106.596 56.302,106.443 56.470 M72.548 56.917 C 72.565 57.291,72.832 57.681,73.609 58.464 C 74.356 59.218,74.640 59.419,74.622 59.184 C 74.609 59.004,74.549 58.886,74.491 58.923 C 74.390 58.985,73.557 58.131,73.632 58.042 C 73.794 57.849,73.622 57.481,73.408 57.564 C 73.260 57.621,73.193 57.593,73.251 57.498 C 73.307 57.407,73.242 57.333,73.107 57.333 C 72.972 57.333,72.785 57.127,72.693 56.875 L 72.525 56.417 72.548 56.917 M75.691 60.452 C 75.750 60.487,75.763 60.648,75.721 60.810 C 75.670 61.007,75.787 61.168,76.080 61.302 C 76.850 61.652,77.023 61.568,76.701 61.001 C 76.544 60.727,76.329 60.502,76.222 60.501 C 76.115 60.500,75.927 60.475,75.805 60.444 C 75.683 60.413,75.632 60.417,75.691 60.452 M77.549 61.958 C 77.561 62.256,77.623 62.500,77.687 62.500 C 77.750 62.500,77.767 62.636,77.723 62.802 C 77.634 63.142,78.268 63.513,78.883 63.481 C 79.140 63.467,79.167 63.439,78.974 63.388 C 78.822 63.348,78.652 63.132,78.596 62.907 C 78.534 62.660,78.373 62.500,78.188 62.500 C 77.990 62.500,77.819 62.309,77.705 61.958 L 77.528 61.417 77.549 61.958 M100.214 62.708 C 100.210 62.823,100.145 63.067,100.071 63.250 C 99.944 63.562,99.953 63.566,100.218 63.304 C 100.373 63.150,100.500 62.906,100.500 62.762 C 100.500 62.454,100.226 62.402,100.214 62.708 M98.740 64.245 C 98.434 64.476,98.446 64.490,98.958 64.495 C 99.331 64.498,99.500 64.422,99.500 64.250 C 99.500 63.932,99.157 63.930,98.740 64.245 M79.833 64.608 C 79.833 64.699,80.021 64.936,80.250 65.136 C 80.479 65.335,80.667 65.436,80.667 65.361 C 80.667 65.286,80.479 65.049,80.250 64.833 C 80.021 64.618,79.833 64.516,79.833 64.608 M98.229 64.910 C 98.178 65.044,97.996 65.198,97.826 65.252 C 97.655 65.307,97.400 65.583,97.258 65.868 C 96.936 66.513,96.934 66.590,97.250 66.274 C 97.388 66.136,97.500 65.906,97.500 65.762 C 97.500 65.543,97.816 65.430,98.333 65.466 C 98.379 65.469,98.427 65.291,98.441 65.069 C 98.468 64.617,98.370 64.544,98.229 64.910 M80.833 65.553 C 80.833 65.674,81.021 65.936,81.250 66.136 C 81.502 66.355,81.667 66.415,81.667 66.289 C 81.667 66.174,81.514 65.985,81.327 65.868 C 81.140 65.751,81.032 65.583,81.087 65.495 C 81.142 65.406,81.107 65.333,81.010 65.333 C 80.913 65.333,80.833 65.432,80.833 65.553 M82.667 67.336 C 82.509 67.436,82.492 67.496,82.620 67.497 C 82.739 67.499,82.780 67.613,82.718 67.774 C 82.653 67.942,82.732 68.136,82.921 68.274 C 83.309 68.557,83.557 68.566,83.402 68.292 C 83.308 68.125,83.329 68.125,83.509 68.292 C 83.892 68.648,83.985 68.522,83.725 68.000 C 83.588 67.725,83.375 67.500,83.252 67.500 C 83.129 67.500,83.003 67.427,82.972 67.339 C 82.937 67.236,82.826 67.235,82.667 67.336 M95.314 67.625 C 95.303 67.694,95.303 67.806,95.314 67.875 C 95.324 67.944,95.248 68.000,95.144 68.000 C 94.922 68.000,94.167 68.779,94.167 69.009 C 94.167 69.096,94.054 69.167,93.917 69.167 C 93.779 69.167,93.667 69.241,93.667 69.331 C 93.667 69.422,93.849 69.481,94.072 69.463 C 94.294 69.444,94.473 69.389,94.468 69.340 C 94.418 68.775,94.538 68.500,94.833 68.500 C 95.017 68.500,95.168 68.406,95.169 68.292 C 95.171 68.153,95.226 68.167,95.333 68.333 C 95.456 68.523,95.496 68.453,95.497 68.042 C 95.500 67.570,95.369 67.274,95.314 67.625 M84.547 69.042 C 84.561 69.294,84.631 69.500,84.703 69.500 C 84.863 69.500,84.853 69.351,84.666 68.917 C 84.542 68.629,84.525 68.646,84.547 69.042 M85.224 69.797 C 85.172 69.998,85.061 70.121,84.978 70.070 C 84.896 70.019,84.871 69.907,84.924 69.822 C 84.977 69.736,84.940 69.667,84.843 69.667 C 84.543 69.667,84.649 70.145,84.989 70.327 C 85.396 70.545,85.549 70.547,85.417 70.333 C 85.360 70.242,85.386 70.167,85.475 70.167 C 85.656 70.167,85.633 69.744,85.443 69.554 C 85.375 69.486,85.277 69.596,85.224 69.797 M93.353 69.692 C 93.342 69.843,93.061 70.128,92.729 70.324 C 92.397 70.520,92.171 70.727,92.228 70.783 C 92.284 70.840,92.254 70.978,92.161 71.090 C 92.041 71.235,92.068 71.324,92.252 71.395 C 92.407 71.454,92.503 71.411,92.487 71.289 C 92.422 70.782,92.520 70.500,92.762 70.500 C 93.143 70.500,93.536 70.046,93.448 69.708 C 93.382 69.456,93.369 69.453,93.353 69.692 M91.333 72.005 C 91.333 72.100,91.165 72.245,90.958 72.328 C 90.598 72.473,90.601 72.479,91.042 72.489 C 91.392 72.498,91.500 72.422,91.500 72.167 C 91.500 71.983,91.462 71.833,91.417 71.833 C 91.371 71.833,91.333 71.911,91.333 72.005 M87.619 72.637 C 87.674 72.791,87.791 73.010,87.880 73.125 C 88.063 73.362,88.402 73.413,88.260 73.182 C 88.208 73.099,88.316 73.070,88.500 73.118 C 88.683 73.166,88.833 73.253,88.833 73.311 C 88.833 73.460,89.779 73.443,89.931 73.292 C 90.135 73.087,90.363 73.150,90.233 73.375 C 90.167 73.490,90.177 73.525,90.255 73.454 C 90.483 73.247,90.513 72.694,90.303 72.564 C 90.174 72.485,90.145 72.538,90.216 72.723 C 90.275 72.875,90.269 73.006,90.203 73.012 C 90.137 73.019,89.898 73.059,89.671 73.100 C 89.399 73.150,89.172 73.068,89.004 72.859 C 88.658 72.427,87.477 72.238,87.619 72.637 " stroke="none" fill="#4cbc34" fill-rule="evenodd"></path><path id="path2" d="M180.578 27.704 C 180.534 27.821,180.517 35.454,180.540 44.667 L 180.583 61.417 183.500 61.417 L 186.417 61.417 186.461 57.458 L 186.506 53.500 187.003 53.500 C 187.444 53.500,187.500 53.444,187.500 53.000 C 187.500 52.580,187.566 52.500,187.909 52.500 C 188.503 52.500,189.109 52.182,189.293 51.773 C 189.442 51.440,189.461 51.453,189.573 51.958 C 189.668 52.387,189.777 52.500,190.097 52.500 C 190.404 52.500,190.500 52.590,190.501 52.875 C 190.501 53.081,190.764 53.535,191.084 53.884 C 191.405 54.233,191.667 54.666,191.667 54.846 C 191.667 55.030,191.842 55.254,192.066 55.356 C 192.305 55.464,192.505 55.732,192.562 56.019 C 192.636 56.389,192.751 56.500,193.058 56.500 C 193.410 56.500,193.470 56.596,193.566 57.324 C 193.650 57.954,193.756 58.173,194.020 58.256 C 194.209 58.316,194.470 58.621,194.601 58.933 C 194.750 59.290,194.953 59.500,195.148 59.500 C 195.359 59.500,195.490 59.659,195.558 59.996 C 195.612 60.269,195.878 60.724,196.148 61.007 L 196.639 61.520 199.812 61.469 C 203.408 61.410,203.427 61.403,203.396 60.200 C 203.376 59.458,203.383 59.446,203.526 59.958 C 203.642 60.377,203.767 60.500,204.075 60.500 C 204.296 60.500,204.697 60.723,204.974 61.000 L 205.474 61.500 210.211 61.500 C 215.205 61.500,215.500 61.455,215.500 60.695 C 215.500 60.588,215.725 60.500,216.000 60.500 C 216.444 60.500,216.500 60.444,216.500 60.000 C 216.500 59.071,217.393 59.590,217.603 60.642 C 217.763 61.438,218.064 61.513,220.872 61.463 L 223.417 61.417 223.417 58.500 L 223.417 55.583 222.958 55.531 L 222.500 55.478 222.500 48.645 L 222.500 41.812 222.000 41.391 C 221.677 41.120,221.499 40.813,221.497 40.527 C 221.494 39.962,221.336 39.721,220.917 39.643 C 220.715 39.605,220.561 39.421,220.527 39.179 C 220.418 38.417,219.208 37.500,218.310 37.500 C 217.574 37.500,217.519 37.470,217.469 37.042 C 217.427 36.672,217.321 36.572,216.922 36.527 C 216.650 36.496,216.265 36.295,216.065 36.080 C 215.320 35.276,209.032 35.223,208.299 36.015 C 208.004 36.333,207.668 36.473,207.015 36.550 C 206.089 36.660,205.667 36.885,205.667 37.270 C 205.667 37.432,205.441 37.500,204.906 37.500 C 203.993 37.500,203.500 37.732,203.500 38.161 C 203.500 38.383,203.362 38.494,203.042 38.531 L 202.583 38.583 202.536 40.434 C 202.487 42.381,202.637 43.107,203.122 43.279 C 203.284 43.337,203.619 43.597,203.866 43.858 C 204.416 44.440,204.576 44.448,205.069 43.917 C 205.288 43.680,205.640 43.500,205.883 43.500 C 206.551 43.500,207.190 43.195,207.286 42.831 C 207.358 42.554,207.514 42.500,208.236 42.500 C 209.142 42.500,209.500 42.302,209.500 41.800 C 209.500 41.527,209.688 41.500,211.583 41.500 C 213.478 41.500,213.667 41.527,213.667 41.800 C 213.667 42.181,213.982 42.500,214.359 42.500 C 214.746 42.500,215.500 43.267,215.500 43.661 C 215.500 44.226,215.696 44.500,216.101 44.500 C 216.433 44.500,216.500 44.584,216.500 45.000 C 216.500 45.694,215.672 45.719,215.090 45.042 L 214.695 44.583 211.755 44.593 L 208.815 44.603 208.430 45.052 C 208.110 45.424,207.906 45.500,207.231 45.502 C 206.079 45.505,205.709 45.640,205.594 46.099 C 205.523 46.384,205.377 46.500,205.091 46.500 C 204.458 46.500,203.809 46.808,203.719 47.151 C 203.673 47.329,203.435 47.505,203.171 47.557 C 202.842 47.623,202.653 47.800,202.528 48.159 C 202.412 48.490,202.238 48.667,202.027 48.667 C 201.791 48.667,201.675 48.820,201.597 49.234 C 201.539 49.546,201.377 49.845,201.238 49.898 C 200.711 50.101,200.500 51.080,200.500 53.328 C 200.500 55.700,200.456 55.790,199.737 54.890 C 199.469 54.554,199.081 54.114,198.875 53.912 C 198.669 53.710,198.500 53.366,198.499 53.148 C 198.498 52.587,197.460 51.500,196.925 51.500 C 196.521 51.500,196.500 51.455,196.500 50.579 C 196.500 49.693,196.481 49.655,196.009 49.560 C 195.634 49.485,195.506 49.358,195.468 49.023 C 195.428 48.683,195.313 48.571,194.958 48.531 C 194.334 48.459,194.233 46.442,194.846 46.282 C 195.036 46.232,195.232 46.036,195.282 45.846 C 195.332 45.656,195.502 45.500,195.660 45.500 C 196.008 45.500,196.500 44.991,196.500 44.631 C 196.500 44.489,196.656 44.332,196.846 44.282 C 197.036 44.232,197.228 44.050,197.273 43.878 C 197.318 43.706,197.572 43.483,197.837 43.383 C 198.131 43.272,198.359 43.038,198.423 42.783 C 198.481 42.553,198.677 42.326,198.860 42.278 C 199.042 42.230,199.234 42.030,199.285 41.833 C 199.337 41.636,199.563 41.404,199.789 41.319 C 200.014 41.233,200.238 41.014,200.286 40.831 C 200.333 40.649,200.502 40.500,200.660 40.500 C 200.970 40.500,201.500 40.004,201.500 39.714 C 201.500 39.618,201.686 39.416,201.914 39.267 C 202.142 39.118,202.375 38.809,202.432 38.581 C 202.497 38.322,202.655 38.167,202.851 38.167 C 203.335 38.167,203.268 37.315,202.749 36.863 C 202.350 36.517,202.181 36.500,199.115 36.500 C 195.810 36.500,195.500 36.558,195.500 37.179 C 195.500 37.373,195.306 37.488,194.861 37.560 C 194.086 37.684,193.685 38.094,193.554 38.896 C 193.481 39.346,193.375 39.500,193.137 39.500 C 192.635 39.500,191.868 39.962,191.749 40.336 C 191.690 40.522,191.385 40.924,191.071 41.229 C 190.757 41.534,190.500 41.935,190.500 42.121 C 190.500 42.382,190.357 42.480,189.861 42.560 C 189.093 42.682,188.685 43.093,188.559 43.868 C 188.471 44.413,188.418 44.453,187.608 44.597 C 186.882 44.727,186.737 44.814,186.667 45.167 C 186.621 45.396,186.546 41.533,186.500 36.583 L 186.417 27.583 183.538 27.538 C 181.326 27.503,180.640 27.541,180.578 27.704 M126.625 27.960 C 126.373 28.116,126.167 28.302,126.167 28.372 C 126.167 28.442,126.062 28.500,125.934 28.500 C 125.807 28.500,125.657 28.619,125.601 28.764 C 125.416 29.245,125.486 60.829,125.673 61.178 C 125.839 61.490,126.108 61.500,133.973 61.500 C 142.440 61.500,142.500 61.495,142.500 60.800 C 142.500 60.544,142.648 60.500,143.500 60.500 L 144.500 60.500 144.500 60.000 L 144.500 59.500 145.667 59.500 C 146.820 59.500,147.500 59.191,147.500 58.667 C 147.500 58.575,147.635 58.500,147.800 58.500 C 148.180 58.500,148.500 58.185,148.500 57.811 C 148.500 57.620,148.655 57.504,148.958 57.469 C 149.318 57.428,149.428 57.318,149.469 56.958 C 149.504 56.655,149.620 56.500,149.811 56.500 C 150.159 56.500,150.500 56.187,150.500 55.867 C 150.500 55.739,150.725 55.424,151.000 55.167 C 151.458 54.739,151.500 54.607,151.500 53.600 L 151.500 52.500 152.000 52.500 L 152.500 52.500 152.500 51.500 C 152.500 50.648,152.544 50.500,152.800 50.500 C 152.965 50.500,153.190 50.410,153.300 50.300 C 153.456 50.144,153.500 50.272,153.500 50.872 C 153.500 51.899,153.741 52.500,154.154 52.500 C 154.438 52.500,154.490 52.632,154.533 53.458 C 154.581 54.366,154.608 54.419,155.042 54.469 C 155.477 54.520,155.500 54.566,155.500 55.402 C 155.500 56.330,155.731 56.714,157.125 58.104 C 157.423 58.401,157.667 58.722,157.667 58.818 C 157.667 59.060,158.566 59.500,159.062 59.500 C 159.384 59.500,159.497 59.609,159.583 60.000 C 159.675 60.416,159.775 60.500,160.180 60.500 C 160.541 60.500,160.667 60.579,160.667 60.807 C 160.667 61.421,161.320 61.500,166.383 61.499 L 171.250 61.498 171.875 60.924 C 172.284 60.549,172.500 60.203,172.500 59.925 C 172.500 59.517,172.539 59.500,173.500 59.500 C 174.050 59.500,174.500 59.434,174.500 59.353 C 174.500 59.272,174.650 59.166,174.833 59.118 C 175.017 59.070,175.167 58.912,175.167 58.766 C 175.167 58.620,175.242 58.500,175.333 58.500 C 175.425 58.500,175.500 58.275,175.500 58.000 C 175.500 57.556,175.556 57.500,176.000 57.500 C 176.442 57.500,176.500 57.443,176.500 57.011 C 176.500 56.602,176.574 56.514,176.958 56.469 C 177.394 56.419,177.419 56.367,177.467 55.437 C 177.510 54.610,177.595 54.379,178.009 53.965 C 178.497 53.477,178.500 53.463,178.500 51.507 C 178.500 49.683,178.524 49.533,178.831 49.452 C 179.577 49.257,179.555 47.667,178.807 47.667 C 178.527 47.667,178.500 47.500,178.500 45.741 L 178.500 43.816 178.000 43.642 C 177.521 43.475,177.500 43.426,177.500 42.492 C 177.500 41.605,177.449 41.466,176.941 40.966 C 176.633 40.664,176.293 40.248,176.185 40.042 C 176.077 39.835,175.895 39.667,175.781 39.667 C 175.666 39.667,175.488 39.442,175.384 39.167 C 175.267 38.857,175.077 38.667,174.884 38.667 C 174.693 38.667,174.502 38.478,174.387 38.175 C 174.226 37.746,174.094 37.668,173.369 37.572 C 172.729 37.487,172.497 37.375,172.366 37.088 C 172.199 36.722,171.584 36.500,170.735 36.500 C 170.521 36.500,170.269 36.358,170.176 36.184 C 169.680 35.257,162.765 35.144,162.634 36.061 C 162.591 36.359,162.441 36.431,161.699 36.506 C 160.851 36.591,160.508 36.816,160.503 37.292 C 160.501 37.415,160.278 37.501,159.958 37.502 C 159.068 37.506,158.741 37.662,158.547 38.178 C 158.424 38.503,158.246 38.667,158.014 38.667 C 157.775 38.667,157.667 38.773,157.667 39.009 C 157.667 39.239,157.503 39.408,157.166 39.525 C 156.855 39.634,156.626 39.852,156.564 40.101 C 156.505 40.337,156.301 40.544,156.069 40.602 C 155.681 40.699,155.596 40.918,155.462 42.167 C 155.431 42.447,155.300 42.600,155.061 42.634 C 154.683 42.688,154.500 43.217,154.500 44.253 C 154.500 44.590,154.402 44.835,154.243 44.896 C 154.102 44.951,153.880 45.240,153.750 45.539 C 153.535 46.033,153.512 45.769,153.507 42.697 C 153.500 39.195,153.411 38.667,152.827 38.667 C 152.556 38.667,152.500 38.552,152.500 37.989 C 152.500 37.148,152.255 36.667,151.827 36.667 C 151.538 36.667,151.500 36.550,151.500 35.662 C 151.500 34.680,151.489 34.656,151.000 34.558 C 150.609 34.480,150.500 34.370,150.500 34.053 C 150.500 33.826,150.293 33.450,150.032 33.199 C 149.774 32.952,149.430 32.537,149.269 32.278 C 149.107 32.018,148.719 31.699,148.407 31.569 C 148.095 31.438,147.717 31.144,147.567 30.916 C 147.407 30.671,147.137 30.500,146.910 30.500 C 146.699 30.500,146.301 30.275,146.026 30.000 C 145.683 29.658,145.361 29.500,145.005 29.500 C 144.645 29.500,144.364 29.360,144.093 29.046 C 143.741 28.637,143.573 28.585,142.393 28.528 C 141.673 28.494,140.971 28.374,140.833 28.261 C 140.018 27.595,127.637 27.332,126.625 27.960 M247.098 28.247 C 246.281 29.040,246.445 31.167,247.323 31.167 C 247.412 31.167,247.534 31.430,247.595 31.752 C 247.674 32.172,247.811 32.363,248.084 32.432 C 248.336 32.495,248.497 32.691,248.561 33.014 C 248.637 33.393,248.749 33.500,249.068 33.500 C 249.391 33.500,249.489 33.597,249.531 33.958 C 249.571 34.312,249.683 34.428,250.021 34.467 C 250.411 34.513,250.472 34.610,250.570 35.349 C 250.655 35.990,250.766 36.219,251.058 36.352 C 251.266 36.447,251.519 36.744,251.620 37.012 C 251.743 37.337,251.921 37.500,252.152 37.500 C 252.402 37.500,252.500 37.606,252.501 37.875 C 252.501 38.081,252.764 38.535,253.084 38.884 C 253.405 39.233,253.667 39.662,253.667 39.838 C 253.667 40.025,253.875 40.266,254.167 40.417 C 254.464 40.570,254.667 40.808,254.667 41.001 C 254.667 41.208,254.816 41.364,255.074 41.429 C 255.357 41.500,255.496 41.666,255.532 41.974 C 255.572 42.317,255.686 42.429,256.042 42.469 C 256.426 42.514,256.500 42.602,256.500 43.011 C 256.500 43.443,256.558 43.500,257.000 43.500 L 257.500 43.500 257.500 44.989 L 257.500 46.478 257.042 46.531 C 256.685 46.572,256.572 46.682,256.532 47.032 C 256.492 47.378,256.378 47.492,256.032 47.532 C 255.687 47.571,255.572 47.685,255.532 48.026 C 255.497 48.327,255.357 48.500,255.095 48.566 C 254.833 48.631,254.677 48.824,254.609 49.165 C 254.531 49.555,254.420 49.667,254.109 49.667 C 253.782 49.667,253.693 49.772,253.615 50.257 C 253.555 50.626,253.328 51.014,253.009 51.294 C 252.729 51.540,252.500 51.904,252.500 52.102 C 252.500 52.350,252.367 52.497,252.078 52.570 C 251.783 52.644,251.627 52.822,251.559 53.162 C 251.493 53.492,251.348 53.665,251.106 53.699 C 250.819 53.740,250.720 53.918,250.596 54.617 C 250.461 55.376,250.389 55.490,250.013 55.533 C 249.684 55.572,249.571 55.690,249.531 56.042 C 249.495 56.354,249.381 56.500,249.176 56.500 C 248.823 56.500,248.561 56.781,248.475 57.250 C 248.440 57.440,248.257 57.606,248.050 57.635 C 247.833 57.666,247.659 57.833,247.616 58.052 C 247.577 58.253,247.535 55.104,247.523 51.055 L 247.500 43.693 247.000 43.583 L 246.500 43.474 246.500 41.645 C 246.500 39.851,246.258 38.833,245.831 38.833 C 245.743 38.833,245.563 38.574,245.430 38.257 C 245.213 37.737,245.108 37.670,244.354 37.570 C 243.609 37.472,243.513 37.412,243.467 37.021 C 243.429 36.689,243.311 36.571,242.981 36.533 C 242.719 36.502,242.475 36.329,242.370 36.098 C 241.928 35.126,235.276 35.255,234.896 36.242 C 234.841 36.387,234.600 36.500,234.349 36.500 C 233.829 36.500,233.500 36.772,233.500 37.200 C 233.500 37.447,233.359 37.500,232.700 37.500 C 232.260 37.500,231.820 37.580,231.722 37.678 C 231.596 37.804,231.521 37.605,231.462 36.999 C 231.331 35.632,231.224 35.583,228.341 35.583 C 226.977 35.583,225.799 35.646,225.722 35.722 C 225.646 35.799,225.583 41.611,225.583 48.639 L 225.583 61.417 228.542 61.462 L 231.500 61.508 231.500 53.504 L 231.500 45.500 232.000 45.500 C 232.444 45.500,232.500 45.444,232.500 45.000 C 232.500 44.556,232.556 44.500,233.000 44.500 C 233.444 44.500,233.500 44.444,233.500 44.000 C 233.500 43.567,233.562 43.499,233.958 43.493 C 234.257 43.488,234.559 43.314,234.826 42.993 C 235.182 42.564,235.345 42.500,236.091 42.500 C 236.943 42.500,237.500 42.182,237.500 41.695 C 237.500 41.215,238.456 41.490,238.558 42.000 C 238.637 42.392,238.746 42.500,239.066 42.500 C 239.300 42.500,239.694 42.719,239.987 43.013 L 240.500 43.526 240.500 51.573 C 240.500 60.646,240.525 61.049,241.111 61.316 C 241.606 61.541,253.500 61.577,253.500 61.353 C 253.500 61.272,253.650 61.166,253.833 61.118 C 254.017 61.070,254.167 60.912,254.167 60.766 C 254.167 60.620,254.242 60.500,254.333 60.500 C 254.425 60.500,254.500 60.280,254.500 60.011 C 254.500 59.602,254.574 59.514,254.958 59.469 C 255.315 59.428,255.428 59.317,255.468 58.971 C 255.497 58.726,255.697 58.409,255.914 58.267 C 256.131 58.125,256.355 57.861,256.413 57.680 C 256.470 57.499,256.652 57.308,256.817 57.255 C 257.158 57.147,257.500 56.494,257.500 55.948 C 257.500 55.725,257.648 55.514,257.875 55.415 C 258.081 55.324,258.324 55.081,258.415 54.875 C 258.505 54.669,258.696 54.500,258.840 54.500 C 259.208 54.500,259.500 54.162,259.500 53.736 C 259.500 53.513,259.628 53.339,259.831 53.286 C 260.188 53.192,260.500 52.554,260.500 51.917 C 260.500 51.610,260.602 51.510,260.958 51.469 C 261.318 51.428,261.428 51.318,261.469 50.958 C 261.566 50.122,262.396 50.606,262.598 51.617 C 262.712 52.185,263.215 52.500,264.008 52.500 C 264.479 52.500,264.500 52.532,264.500 53.236 C 264.500 54.224,264.629 54.500,265.090 54.500 C 265.389 54.500,265.490 54.605,265.531 54.958 C 265.572 55.318,265.682 55.428,266.042 55.469 C 266.441 55.515,266.500 55.595,266.500 56.084 C 266.500 56.900,266.772 57.500,267.142 57.500 C 267.360 57.500,267.489 57.655,267.558 58.000 C 267.638 58.397,267.745 58.500,268.079 58.500 C 268.412 58.500,268.500 58.583,268.500 58.899 C 268.500 59.119,268.725 59.539,269.000 59.833 C 269.275 60.128,269.500 60.496,269.500 60.652 C 269.500 61.466,269.701 61.511,273.167 61.462 L 276.417 61.417 276.417 60.000 L 276.417 58.583 275.958 58.531 C 275.602 58.490,275.500 58.390,275.500 58.083 C 275.500 57.446,275.188 56.808,274.831 56.714 C 274.613 56.657,274.500 56.487,274.500 56.216 C 274.500 55.912,274.370 55.755,274.000 55.616 C 273.644 55.481,273.500 55.317,273.500 55.043 C 273.500 54.749,273.382 54.635,273.000 54.558 C 272.586 54.476,272.500 54.377,272.500 53.987 C 272.500 53.309,272.163 52.667,271.807 52.667 C 271.589 52.667,271.500 52.543,271.500 52.241 C 271.500 51.919,271.379 51.774,271.000 51.642 C 270.630 51.513,270.500 51.362,270.500 51.063 C 270.500 50.747,270.391 50.636,270.000 50.558 C 269.587 50.476,269.500 50.377,269.500 49.992 C 269.500 49.702,269.321 49.347,269.028 49.054 C 268.769 48.795,268.506 48.382,268.445 48.136 C 268.372 47.844,268.203 47.671,267.958 47.637 C 267.688 47.598,267.568 47.453,267.530 47.118 C 267.489 46.761,267.368 46.632,267.009 46.560 C 266.141 46.386,266.114 43.568,266.980 43.467 C 267.313 43.429,267.429 43.311,267.468 42.974 C 267.503 42.667,267.643 42.500,267.924 42.430 C 268.183 42.365,268.369 42.165,268.443 41.873 C 268.505 41.622,268.769 41.205,269.028 40.946 C 269.326 40.648,269.500 40.299,269.500 39.998 C 269.500 39.603,269.578 39.513,269.958 39.469 C 270.318 39.428,270.428 39.318,270.469 38.958 C 270.504 38.655,270.620 38.500,270.811 38.500 C 271.159 38.500,271.500 38.187,271.500 37.867 C 271.500 37.739,271.725 37.424,272.000 37.167 C 272.373 36.818,272.500 36.550,272.500 36.111 C 272.500 35.593,272.555 35.516,272.958 35.469 C 273.318 35.428,273.428 35.318,273.469 34.958 C 273.504 34.655,273.620 34.500,273.811 34.500 C 274.208 34.500,274.500 34.173,274.500 33.728 C 274.500 33.512,274.630 33.315,274.808 33.258 C 275.167 33.144,275.500 32.495,275.500 31.909 C 275.500 31.566,275.580 31.500,276.000 31.500 L 276.500 31.500 276.500 30.075 C 276.500 29.124,276.415 28.487,276.246 28.158 L 275.991 27.667 273.591 27.667 C 271.229 27.667,271.186 27.673,270.863 28.083 C 270.683 28.313,270.420 28.500,270.280 28.500 C 269.931 28.500,269.500 28.957,269.500 29.328 C 269.500 29.495,269.275 29.872,269.000 30.167 C 268.725 30.461,268.500 30.877,268.500 31.090 C 268.500 31.389,268.395 31.490,268.042 31.531 C 267.682 31.572,267.572 31.682,267.531 32.041 C 267.494 32.359,267.358 32.529,267.088 32.597 C 266.673 32.701,266.506 33.087,266.502 33.947 C 266.500 34.402,266.434 34.485,266.042 34.531 C 265.685 34.572,265.572 34.682,265.532 35.032 C 265.492 35.378,265.378 35.492,265.032 35.532 C 264.611 35.580,264.580 35.642,264.534 36.521 L 264.485 37.458 263.819 37.547 C 262.994 37.658,262.720 37.877,262.574 38.544 C 262.367 39.485,261.500 39.918,261.500 39.079 C 261.500 38.745,261.397 38.638,261.000 38.558 C 260.609 38.480,260.500 38.370,260.500 38.054 C 260.500 37.502,260.046 36.667,259.746 36.667 C 259.593 36.667,259.500 36.504,259.500 36.236 C 259.500 35.911,259.378 35.758,259.010 35.619 C 258.726 35.512,258.479 35.273,258.423 35.051 C 258.355 34.779,258.206 34.667,257.913 34.667 C 257.551 34.667,257.500 34.594,257.500 34.075 C 257.500 33.625,257.361 33.341,256.921 32.888 C 256.603 32.560,256.298 32.151,256.243 31.979 C 256.189 31.807,255.999 31.667,255.822 31.667 C 255.575 31.667,255.500 31.550,255.500 31.162 C 255.500 30.736,255.423 30.643,255.000 30.558 C 254.604 30.479,254.500 30.371,254.500 30.042 C 254.500 29.627,253.236 28.227,252.513 27.840 C 252.334 27.745,251.179 27.667,249.942 27.667 L 247.695 27.667 247.098 28.247 M137.583 34.000 L 137.693 34.500 139.576 34.500 L 141.458 34.500 141.558 35.000 C 141.655 35.483,141.689 35.500,142.579 35.500 C 143.430 35.500,143.500 35.529,143.500 35.885 C 143.500 36.097,143.722 36.498,143.994 36.775 C 144.266 37.053,144.565 37.482,144.658 37.727 C 144.751 37.972,145.016 38.244,145.247 38.332 C 145.507 38.431,145.667 38.622,145.667 38.833 C 145.667 39.035,145.836 39.251,146.083 39.364 C 146.479 39.544,146.501 39.627,146.517 40.985 C 146.537 42.739,146.654 43.202,147.130 43.415 C 147.603 43.625,147.698 45.722,147.242 45.896 C 146.753 46.084,146.500 47.084,146.500 48.828 C 146.500 50.327,146.469 50.500,146.200 50.500 C 145.823 50.500,145.500 50.814,145.500 51.182 C 145.500 51.343,145.323 51.508,145.086 51.568 C 144.830 51.632,144.632 51.830,144.567 52.087 C 144.506 52.332,144.306 52.542,144.079 52.599 C 143.864 52.653,143.653 52.864,143.599 53.079 C 143.540 53.317,143.331 53.506,143.052 53.576 C 142.803 53.639,142.431 53.872,142.225 54.095 C 141.963 54.378,141.658 54.505,141.216 54.517 C 140.206 54.543,139.756 54.725,139.697 55.132 C 139.644 55.499,139.629 55.500,136.072 55.500 L 132.500 55.500 132.500 44.500 L 132.500 33.500 134.987 33.500 L 137.474 33.500 137.583 34.000 M167.583 42.000 C 167.688 42.479,167.731 42.500,168.576 42.500 C 169.423 42.500,169.462 42.520,169.558 43.000 C 169.636 43.389,169.747 43.500,170.058 43.500 C 170.369 43.500,170.481 43.611,170.558 44.000 C 170.637 44.393,170.746 44.500,171.068 44.500 C 171.391 44.500,171.489 44.597,171.531 44.958 C 171.572 45.318,171.682 45.428,172.042 45.469 L 172.500 45.522 172.500 48.594 L 172.500 51.667 172.083 51.667 C 171.751 51.667,171.667 51.750,171.667 52.079 C 171.667 52.331,171.511 52.595,171.267 52.754 C 171.047 52.898,170.769 53.256,170.649 53.550 C 170.344 54.296,170.161 54.443,169.375 54.576 C 168.847 54.666,168.674 54.775,168.635 55.046 C 168.593 55.331,168.405 55.434,167.667 55.575 C 166.907 55.720,166.741 55.814,166.697 56.125 C 166.609 56.740,165.541 56.667,165.469 56.042 C 165.420 55.608,165.365 55.581,164.469 55.534 C 163.577 55.487,163.518 55.457,163.469 55.034 C 163.428 54.682,163.316 54.572,162.958 54.531 C 162.597 54.489,162.500 54.391,162.500 54.068 C 162.500 53.746,162.393 53.637,162.000 53.558 C 161.609 53.480,161.500 53.370,161.500 53.054 C 161.500 52.502,161.046 51.667,160.746 51.667 C 160.539 51.667,160.501 51.236,160.505 48.958 L 160.509 46.250 161.005 45.764 C 161.277 45.497,161.500 45.103,161.500 44.889 C 161.500 44.626,161.597 44.500,161.800 44.500 C 162.177 44.500,162.500 44.186,162.500 43.818 C 162.500 43.657,162.677 43.492,162.914 43.432 C 163.170 43.368,163.368 43.170,163.432 42.914 C 163.522 42.558,163.631 42.500,164.213 42.500 C 164.905 42.500,165.500 42.142,165.500 41.724 C 165.500 41.183,167.461 41.443,167.583 42.000 M215.987 51.013 C 216.731 51.757,216.768 53.447,216.042 53.531 C 215.682 53.572,215.572 53.682,215.531 54.042 C 215.493 54.370,215.384 54.500,215.147 54.500 C 214.693 54.500,213.895 54.933,213.775 55.244 C 213.721 55.385,213.502 55.500,213.289 55.500 C 212.824 55.500,212.500 55.788,212.500 56.200 C 212.500 56.747,209.556 56.640,209.303 56.083 C 209.199 55.854,208.977 55.667,208.811 55.667 C 208.644 55.667,208.393 55.443,208.250 55.167 C 208.108 54.892,207.881 54.667,207.746 54.667 C 207.593 54.667,207.500 54.505,207.500 54.241 C 207.500 53.916,207.379 53.774,206.988 53.638 C 206.482 53.461,206.480 53.457,206.850 53.271 C 207.056 53.168,207.296 52.858,207.384 52.583 C 207.577 51.978,207.971 51.500,208.276 51.500 C 208.414 51.500,208.500 51.308,208.500 51.000 L 208.500 50.500 211.987 50.500 L 215.474 50.500 215.987 51.013 " stroke="none" fill="#04c4fc" fill-rule="evenodd"></path></g></svg>